<?xml version="1.0" standalone="no"?>
<!DOCTYPE svg PUBLIC "-//W3C//DTD SVG 20010904//EN"
 "http://www.w3.org/TR/2001/REC-SVG-20010904/DTD/svg10.dtd">
<svg version="1.0" xmlns="http://www.w3.org/2000/svg"
 width="256.000000pt" height="256.000000pt" viewBox="0 0 256.000000 256.000000"
 preserveAspectRatio="xMidYMid meet">

<g transform="translate(0.000000,256.000000) scale(0.100000,-0.100000)"
fill="#000000" stroke="none">
<path d="M1770 2552 c0 -7 34 -110 47 -142 3 -8 7 -22 7 -30 1 -8 12 -17 26
-20 27 -6 28 -8 16 -61 -5 -24 -4 -45 4 -59 8 -15 9 -25 2 -29 -6 -4 -1 -17
13 -33 20 -24 24 -25 28 -10 3 10 5 6 6 -10 0 -16 10 -37 21 -48 11 -11 17
-20 14 -20 -4 0 -1 -6 5 -14 6 -7 8 -22 4 -32 -6 -16 -4 -17 9 -7 17 15 28 8
28 -18 0 -9 5 -19 11 -21 6 -2 12 -19 14 -38 4 -40 30 -106 44 -112 4 -1 11
-25 14 -52 7 -57 16 -72 18 -30 1 24 3 22 8 -11 4 -22 6 -65 5 -95 -1 -30 -2
-73 -3 -95 l-1 -40 -83 0 c-66 0 -90 -4 -125 -22 -23 -13 -46 -23 -51 -23 -4
0 -11 38 -14 84 -4 56 -13 98 -27 125 -19 39 -23 41 -65 41 -31 0 -47 -5 -53
-17 -9 -14 -10 -14 -16 5 -4 12 -11 22 -15 22 -4 0 -8 13 -8 30 0 16 -7 38
-15 47 -9 10 -21 35 -28 56 -9 31 -16 38 -31 34 -28 -8 -23 6 10 26 17 10 31
28 34 44 4 16 10 48 15 73 14 69 34 130 44 130 5 0 8 10 7 23 -1 12 -1 31 0
42 2 18 3 18 9 2 4 -9 8 10 9 44 0 34 6 66 12 72 21 21 10 42 -41 81 -61 46
-133 80 -159 73 -10 -3 -17 -2 -14 3 3 4 -2 10 -10 14 -8 3 -15 1 -15 -3 0
-15 -33 -22 -42 -9 -5 8 -8 9 -8 2 0 -7 -19 -17 -42 -23 -47 -12 -88 -55 -70
-73 14 -14 2 -50 -14 -44 -11 4 -13 -1 -8 -22 4 -15 11 -28 16 -30 21 -9 7
-40 -21 -45 -34 -7 -43 -33 -30 -81 11 -39 39 -69 39 -42 0 9 4 16 10 16 5 0
13 18 16 40 4 22 11 43 17 47 6 4 7 -8 2 -33 -10 -50 -12 -67 -21 -131 -4 -29
-9 -53 -11 -53 -2 0 -22 10 -43 23 -32 18 -43 20 -57 10 -10 -6 -17 -15 -16
-20 1 -5 -17 -10 -40 -12 -23 -1 -55 -9 -71 -17 -16 -7 -37 -14 -47 -14 -9 0
-35 -15 -58 -34 -22 -19 -44 -36 -48 -38 -22 -9 -52 -70 -51 -100 2 -46 -21
-91 -44 -85 -15 4 -18 -1 -18 -38 0 -62 -21 -145 -37 -145 -7 0 -13 -6 -13
-13 0 -27 -35 -48 -68 -41 -20 4 -47 0 -72 -10 -40 -16 -42 -16 -78 9 -20 14
-45 25 -55 25 -26 0 -59 19 -52 30 4 6 -2 9 -12 8 -44 -3 -53 1 -44 25 5 13 4
33 -3 49 -12 28 -80 81 -90 70 -3 -3 -6 -2 -6 3 0 4 8 14 18 21 16 13 16 14
-2 7 -13 -4 -17 -3 -12 5 4 7 2 12 -4 12 -7 0 -10 -7 -6 -15 3 -8 1 -15 -5
-15 -6 0 -8 -7 -5 -16 3 -9 2 -12 -5 -8 -6 3 -9 15 -6 25 3 11 1 16 -4 13 -5
-3 -17 2 -26 11 -13 13 -18 14 -25 3 -6 -10 -13 -7 -28 12 -11 14 -25 31 -30
38 -6 6 -7 12 -2 12 6 0 13 16 16 35 4 19 11 35 16 35 20 0 9 21 -15 30 -24 9
-28 17 -26 50 0 11 -1 11 -5 2 -5 -10 -12 -9 -32 4 -15 10 -33 26 -40 36 -7
10 -22 18 -32 18 -10 0 -21 8 -23 18 -3 9 -5 -452 -6 -1025 l-1 -1043 1280 0
1280 0 0 1280 0 1280 -395 0 c-217 0 -395 -4 -395 -8z m-310 -252 c0 -5 7 -7
15 -4 9 4 15 0 15 -10 0 -9 -7 -16 -15 -16 -8 0 -15 -6 -16 -12 0 -10 -2 -10
-6 0 -2 6 -11 12 -19 12 -17 0 -19 26 -1 33 20 8 27 8 27 -3z m136 -55 c16 -8
22 -15 13 -15 -8 0 -24 7 -35 15 -25 19 -14 19 22 0z m-176 -5 c0 -5 -5 -10
-11 -10 -5 0 -7 5 -4 10 3 6 8 10 11 10 2 0 4 -4 4 -10z m60 0 c0 -5 -5 -10
-11 -10 -5 0 -7 5 -4 10 3 6 8 10 11 10 2 0 4 -4 4 -10z m130 -34 c0 -3 -4 -8
-10 -11 -5 -3 -10 -1 -10 4 0 6 5 11 10 11 6 0 10 -2 10 -4z m1 -111 c-1 -15
-24 -12 -29 3 -3 9 2 13 12 10 10 -1 17 -7 17 -13z m-361 -35 c0 -5 -5 -10
-11 -10 -5 0 -7 5 -4 10 3 6 8 10 11 10 2 0 4 -4 4 -10z m-180 -164 c0 -2 -7
-7 -16 -10 -8 -3 -12 -2 -9 4 6 10 25 14 25 6z m-114 -104 c-17 -16 -18 -16
-5 5 7 12 15 20 18 17 3 -2 -3 -12 -13 -22z m103 -7 c-13 -14 -39 -35 -57 -46
-20 -13 -31 -27 -28 -35 4 -10 -2 -14 -18 -14 -14 0 -32 -3 -42 -7 -36 -14 -2
18 41 38 24 12 60 36 80 55 42 40 58 46 24 9z m-64 -15 c-22 -11 -47 -19 -55
-16 -10 2 -8 4 5 5 11 1 29 8 39 16 11 8 27 15 35 15 8 0 -3 -9 -24 -20z
m-134 -80 c5 0 9 10 9 22 0 14 3 19 10 12 6 -6 3 -28 -11 -64 -12 -30 -22 -73
-22 -94 -1 -23 -8 -41 -16 -44 -11 -4 -12 6 -6 49 12 82 13 91 16 134 1 31 3
34 6 13 2 -16 9 -28 14 -28z m74 -60 c-3 -5 -11 -10 -16 -10 -6 0 -7 5 -4 10
3 6 11 10 16 10 6 0 7 -4 4 -10z m20 -27 c-26 -7 -46 -23 -40 -33 3 -4 -2 -10
-10 -14 -20 -7 -19 18 1 38 8 9 27 15 42 15 21 -1 23 -2 7 -6z m30 -33 c-3 -5
-12 -10 -18 -10 -7 0 -6 4 3 10 19 12 23 12 15 0z m-449 -90 c35 -12 54 -40
54 -81 0 -16 -7 -19 -49 -19 -34 0 -51 4 -55 15 -4 12 -24 15 -86 15 -72 0
-81 -2 -78 -17 3 -16 19 -19 122 -23 108 -5 120 -8 137 -29 28 -34 26 -105 -4
-135 -19 -19 -39 -24 -106 -30 -101 -9 -210 1 -233 22 -11 9 -18 29 -18 49 l0
33 50 0 c38 0 50 -4 50 -15 0 -13 14 -15 88 -13 69 2 87 6 87 18 0 12 -24 17
-120 23 -146 10 -155 16 -155 97 0 64 10 78 63 89 58 12 217 13 253 1z m469
-35 l0 -40 -67 -3 -68 -3 0 -109 c0 -81 -3 -110 -12 -111 -7 0 -30 -2 -50 -4
l-38 -3 0 114 0 114 -65 0 -65 0 0 44 0 44 183 -2 182 -1 0 -40z m385 6 l0
-41 -115 0 c-95 0 -117 -3 -122 -15 -3 -9 -3 -19 0 -22 4 -3 54 -5 112 -5 58
0 105 -3 105 -8 0 -5 -4 -20 -10 -34 -9 -26 -11 -26 -110 -26 -99 0 -101 0
-98 -22 3 -25 -3 -24 141 -27 l97 -1 0 -35 0 -35 -170 0 -170 0 0 148 c0 82 2
151 4 153 2 2 79 5 170 7 l166 3 0 -40z m375 33 c55 -10 75 -37 75 -98 0 -40
-5 -57 -20 -71 l-20 -18 20 -14 c15 -11 20 -25 20 -59 l0 -44 -50 0 c-48 0
-49 1 -56 35 l-6 35 -83 0 c-87 0 -95 -4 -95 -50 0 -14 -10 -19 -46 -22 -25
-2 -47 -1 -50 1 -6 6 -5 297 1 303 8 8 271 10 310 2z m380 -105 c54 -71 85
-105 86 -93 1 11 2 60 3 109 l1 90 48 2 47 2 0 -157 0 -157 -75 -2 -74 -3 -83
110 c-46 60 -86 109 -90 109 -4 1 -6 -47 -5 -106 l2 -108 -47 -2 -48 -2 0 159
0 160 75 0 74 0 86 -111z m-1369 -307 c-3 -3 -20 -5 -36 -5 -16 0 -30 -4 -30
-9 0 -5 4 -7 9 -3 5 3 12 1 15 -3 3 -5 16 -7 30 -5 13 3 27 0 30 -6 4 -7 -6
-10 -31 -9 -20 1 -39 -4 -41 -10 -8 -25 -59 -74 -66 -64 -5 8 -15 8 -32 1 -22
-8 -25 -7 -20 7 3 8 6 20 6 25 0 5 11 7 25 3 15 -4 25 -2 25 5 0 6 -7 8 -15 5
-22 -9 -18 6 8 34 l22 25 -22 -12 c-13 -6 -23 -8 -23 -3 0 16 39 44 63 46 14
0 23 4 21 8 -3 4 9 14 26 23 16 8 31 21 32 28 1 6 3 -8 5 -32 3 -23 2 -46 -1
-49z m109 48 c3 -5 1 -10 -4 -10 -6 0 -11 5 -11 10 0 6 2 10 4 10 3 0 8 -4 11
-10z m-331 -67 c-21 -27 -44 -41 -44 -26 0 13 51 65 58 58 3 -3 -3 -17 -14
-32z m-67 -125 c-3 -8 -6 -5 -6 6 -1 11 2 17 5 13 3 -3 4 -12 1 -19z"/>
<path d="M1552 1368 l3 -33 72 -3 c83 -3 116 9 111 41 -3 21 -9 22 -96 25
l-93 3 3 -33z"/>
<path d="M731 1094 c0 -11 3 -14 6 -6 3 7 2 16 -1 19 -3 4 -6 -2 -5 -13z"/>
<path d="M683 1023 c-7 -2 -13 -11 -13 -19 0 -12 4 -12 20 -4 32 17 26 37 -7
23z"/>
<path d="M1161 2107 c-1 -14 -7 -16 -28 -12 -24 5 -25 5 -10 -5 28 -18 56 -9
46 15 -6 17 -8 18 -8 2z"/>
<path d="M933 2013 c-14 -5 -18 -23 -5 -23 5 0 17 7 28 15 14 11 15 14 4 14
-8 0 -21 -3 -27 -6z"/>
<path d="M180 1965 c0 -8 5 -15 10 -15 6 0 10 7 10 15 0 8 -4 15 -10 15 -5 0
-10 -7 -10 -15z"/>
<path d="M836 1904 c-3 -9 -6 -37 -5 -62 1 -31 3 -40 8 -27 4 11 13 32 20 47
14 27 10 58 -8 58 -5 0 -12 -7 -15 -16z"/>
<path d="M355 1810 c3 -5 8 -10 11 -10 2 0 4 5 4 10 0 6 -5 10 -11 10 -5 0 -7
-4 -4 -10z"/>
<path d="M560 1555 c0 -8 5 -15 10 -15 6 0 10 7 10 15 0 8 -4 15 -10 15 -5 0
-10 -7 -10 -15z"/>
</g>
</svg>
